# xmcd CD database file
#
# Track frame offsets:
#	150
#	11791
#	27463
#	46785
#	60927
#	73091
#	84732
#	97695
#	108605
#	120039
#	135745
#	148713
#	165767
#	181145
#	196621
#	217093
#	239599
#	260898
#	274741
#	295108
#	319419
#
# Disc length: 4594 seconds
#
# Revision: 0
# Processed by: cddbd v1.5.2PL0 Copyright (c) Steve Scherf et al.
# Submitted via: CDex 1.70beta2
#
DISCID=2c11f015
DTITLE=Ely,Joe - Musta Notta Gotta Lotta - Hi-Res
DYEAR=2009
DGENRE=Country
TTITLE0=Musta Notta Gotta Lotta
TTITLE1=Dallas
TTITLE2=Wishin´ For You
TTITLE3=Hold On
TTITLE4=Rock Me My Baby
TTITLE5=I Keep Gettin´ Paid The Same
TTITLE6=Good Rockin´ Tonight
TTITLE7=Hard Livin´
TTITLE8=Road Hawg
TTITLE9=Dam Of My Heart
TTITLE10=Bet Me
TTITLE11=What´s Shakin´ Tonight
TTITLE12=Cool Rockin´ Loretta
TTITLE13=Madame Wo
TTITLE14=Dream Camera
TTITLE15=Letter To Laredo
TTITLE16=She Gotta Get The Gettin´
TTITLE17=Lipstick In The Night
TTITLE18=Imagine Houston
TTITLE19=Dame Tu Mano
TTITLE20=Locked In A Boxcar With The Queen Of Spain
EXTD=YEAR: 2009
EXTT0=
EXTT1=
EXTT2=
EXTT3=
EXTT4=
EXTT5=
EXTT6=
EXTT7=
EXTT8=
EXTT9=
EXTT10=
EXTT11=
EXTT12=
EXTT13=
EXTT14=
EXTT15=
EXTT16=
EXTT17=
EXTT18=
EXTT19=
EXTT20=
PLAYORDER=
